<svg width="20" height="20" viewBox="0 0 20 20" fill="none" xmlns="http://www.w3.org/2000/svg">
<path d="M7.50008 0.833313V2.49998H12.5001V0.833313H14.1667V2.49998H17.5001C17.9603 2.49998 18.3334 2.87308 18.3334 3.33331V16.6666C18.3334 17.1269 17.9603 17.5 17.5001 17.5H2.50008C2.03985 17.5 1.66675 17.1269 1.66675 16.6666V3.33331C1.66675 2.87308 2.03985 2.49998 2.50008 2.49998H5.83341V0.833313H7.50008ZM16.6667 9.16665H3.33341V15.8333H16.6667V9.16665ZM6.66675 11.6666V13.3333H5.00008V11.6666H6.66675ZM15.0001 11.6666V13.3333H8.33341V11.6666H15.0001ZM5.83341 4.16665H3.33341V7.49998H16.6667V4.16665H14.1667V5.83331H12.5001V4.16665H7.50008V5.83331H5.83341V4.16665Z" fill="white"/>
</svg>
