<svg width="20" height="20" viewBox="0 0 20 20" fill="none" xmlns="http://www.w3.org/2000/svg">
<path d="M14.1667 2.49998H17.5001C17.9603 2.49998 18.3334 2.87308 18.3334 3.33331V16.6666C18.3334 17.1269 17.9603 17.5 17.5001 17.5H2.50008C2.03985 17.5 1.66675 17.1269 1.66675 16.6666V3.33331C1.66675 2.87308 2.03985 2.49998 2.50008 2.49998H5.83341V0.833313H7.50008V2.49998H12.5001V0.833313H14.1667V2.49998ZM3.33341 7.49998V15.8333H16.6667V7.49998H3.33341ZM5.00008 9.16665H6.66675V10.8333H5.00008V9.16665ZM5.00008 12.5H6.66675V14.1666H5.00008V12.5ZM8.33341 9.16665H15.0001V10.8333H8.33341V9.16665ZM8.33341 12.5H12.5001V14.1666H8.33341V12.5Z" fill="#3E97FF"/>
</svg>
