<svg width="20" height="20" viewBox="0 0 20 20" fill="none" xmlns="http://www.w3.org/2000/svg">
<path d="M13.3333 1.66669H3.33333C2.8731 1.66669 2.5 2.03979 2.5 2.50002V17.5C2.5 17.9603 2.8731 18.3334 3.33333 18.3334H10.2122C9.55317 17.3885 9.16667 16.2394 9.16667 15C9.16667 11.7784 11.7783 9.16669 15 9.16669C15.8947 9.16669 16.7422 9.3681 17.5 9.72802V5.83335L13.3333 1.66669ZM11.4881 12.7724C11.5205 12.1664 11.9882 11.6736 12.5917 11.6094L13.3172 11.5324C13.4034 11.5233 13.4846 11.4871 13.5491 11.4292L14.0918 10.9416C14.5432 10.5359 15.2224 10.5182 15.6945 10.8996L16.2621 11.3582C16.3295 11.4126 16.4124 11.4444 16.499 11.4491L17.2276 11.4881C17.8336 11.5205 18.3264 11.9882 18.3906 12.5917L18.4676 13.3173C18.4767 13.4034 18.5129 13.4846 18.5708 13.5491L19.0584 14.0919C19.4641 14.5433 19.4818 15.2224 19.1004 15.6945L18.6418 16.2621C18.5874 16.3295 18.5556 16.4124 18.5509 16.499L18.5119 17.2276C18.4795 17.8336 18.0118 18.3264 17.4083 18.3906L16.6828 18.4676C16.5966 18.4768 16.5154 18.5129 16.4509 18.5709L15.9082 19.0584C15.4567 19.4641 14.7776 19.4819 14.3055 19.1004L13.7379 18.6419C13.6705 18.5874 13.5876 18.5556 13.501 18.5509L12.7724 18.5119C12.1664 18.4795 11.6736 18.0119 11.6094 17.4084L11.5324 16.6828C11.5232 16.5966 11.4871 16.5154 11.4292 16.4509L10.9416 15.9082C10.5359 15.4568 10.5182 14.7775 10.8996 14.3055L11.3582 13.7379C11.4126 13.6705 11.4444 13.5876 11.4491 13.501L11.4881 12.7724ZM17.5252 14.1919L16.6414 13.3081L14.5833 15.3661L13.3586 14.1414L12.4747 15.0253L14.1414 16.6919L14.5833 17.1339L15.0252 16.6919L17.5252 14.1919Z" fill="#3E97FF"/>
</svg>
