<svg width="20" height="20" viewBox="0 0 20 20" fill="none" xmlns="http://www.w3.org/2000/svg">
<path d="M10.0001 1.66669C14.6024 1.66669 18.3334 5.39765 18.3334 10C18.3334 14.6024 14.6024 18.3334 10.0001 18.3334C5.39771 18.3334 1.66675 14.6024 1.66675 10C1.66675 5.39765 5.39771 1.66669 10.0001 1.66669ZM13.8302 6.16986C13.6597 5.9994 13.3915 5.97609 13.1942 6.11459C10.7866 7.8046 9.42725 8.8051 9.11616 9.1161C8.62808 9.60427 8.62808 10.3958 9.11616 10.8839C9.60433 11.372 10.3958 11.372 10.884 10.8839C11.0664 10.7014 12.0659 9.34127 13.8823 6.8035C14.0223 6.60798 14.0002 6.33989 13.8302 6.16986ZM14.5834 9.16669C14.1232 9.16669 13.7501 9.53977 13.7501 10C13.7501 10.4603 14.1232 10.8334 14.5834 10.8334C15.0437 10.8334 15.4167 10.4603 15.4167 10C15.4167 9.53977 15.0437 9.16669 14.5834 9.16669ZM5.41675 9.16669C4.95651 9.16669 4.58341 9.53977 4.58341 10C4.58341 10.4603 4.95651 10.8334 5.41675 10.8334C5.87698 10.8334 6.25008 10.4603 6.25008 10C6.25008 9.53977 5.87698 9.16669 5.41675 9.16669ZM7.34843 6.16986C7.023 5.84442 6.49536 5.84442 6.16992 6.16986C5.84448 6.4953 5.84448 7.02294 6.16992 7.34837C6.49536 7.6738 7.023 7.6738 7.34843 7.34837C7.67386 7.02294 7.67386 6.4953 7.34843 6.16986ZM10.0001 4.58335C9.53983 4.58335 9.16675 4.95645 9.16675 5.41669C9.16675 5.87692 9.53983 6.25002 10.0001 6.25002C10.4603 6.25002 10.8334 5.87692 10.8334 5.41669C10.8334 4.95645 10.4603 4.58335 10.0001 4.58335Z" fill="#3E97FF"/>
</svg>
