<svg width="20" height="20" viewBox="0 0 20 20" fill="none" xmlns="http://www.w3.org/2000/svg">
<path d="M10.0001 1.66669C14.6024 1.66669 18.3334 5.39765 18.3334 10C18.3334 14.6024 14.6024 18.3334 10.0001 18.3334C5.39771 18.3334 1.66675 14.6024 1.66675 10C1.66675 5.39765 5.39771 1.66669 10.0001 1.66669ZM10.0001 3.33335C6.31818 3.33335 3.33341 6.31812 3.33341 10C3.33341 13.6819 6.31818 16.6667 10.0001 16.6667C13.682 16.6667 16.6667 13.6819 16.6667 10C16.6667 6.31812 13.682 3.33335 10.0001 3.33335ZM13.1942 6.11459C13.3915 5.97609 13.6597 5.9994 13.8302 6.16986C14.0002 6.33989 14.0223 6.60798 13.8823 6.8035C12.0659 9.34127 11.0664 10.7014 10.884 10.8839C10.3958 11.372 9.60433 11.372 9.11616 10.8839C8.62808 10.3958 8.62808 9.60427 9.11616 9.1161C9.42725 8.8051 10.7866 7.8046 13.1942 6.11459ZM14.5834 9.16669C15.0437 9.16669 15.4167 9.53977 15.4167 10C15.4167 10.4603 15.0437 10.8334 14.5834 10.8334C14.1232 10.8334 13.7501 10.4603 13.7501 10C13.7501 9.53977 14.1232 9.16669 14.5834 9.16669ZM5.41675 9.16669C5.87698 9.16669 6.25008 9.53977 6.25008 10C6.25008 10.4603 5.87698 10.8334 5.41675 10.8334C4.95651 10.8334 4.58341 10.4603 4.58341 10C4.58341 9.53977 4.95651 9.16669 5.41675 9.16669ZM7.34843 6.16986C7.67386 6.4953 7.67386 7.02294 7.34843 7.34837C7.023 7.6738 6.49536 7.6738 6.16992 7.34837C5.84448 7.02294 5.84448 6.4953 6.16992 6.16986C6.49536 5.84442 7.023 5.84442 7.34843 6.16986ZM10.0001 4.58335C10.4603 4.58335 10.8334 4.95645 10.8334 5.41669C10.8334 5.87692 10.4603 6.25002 10.0001 6.25002C9.53983 6.25002 9.16675 5.87692 9.16675 5.41669C9.16675 4.95645 9.53983 4.58335 10.0001 4.58335Z" fill="white"/>
</svg>
