<svg width="20" height="20" viewBox="0 0 20 20" fill="none" xmlns="http://www.w3.org/2000/svg">
<path d="M2.57252 7.5H17.4279C17.8881 7.5 18.2612 7.8731 18.2612 8.33333C18.2612 8.35642 18.2602 8.3795 18.2583 8.4025L17.5639 16.7358C17.5279 17.1677 17.1668 17.5 16.7334 17.5H3.26696C2.83355 17.5 2.4725 17.1677 2.43651 16.7358L1.74206 8.4025C1.70384 7.94389 2.04467 7.5411 2.50331 7.50288C2.52634 7.50096 2.54942 7.5 2.57252 7.5ZM4.03374 15.8333H15.9666L16.5222 9.16667H3.47818L4.03374 15.8333ZM11.1787 4.16667H16.6669C17.1271 4.16667 17.5002 4.53977 17.5002 5V5.83333H2.50019V3.33333C2.50019 2.8731 2.87329 2.5 3.33352 2.5H9.51204L11.1787 4.16667Z" fill="white"/>
</svg>
