<svg width="20" height="20" viewBox="0 0 20 20" fill="none" xmlns="http://www.w3.org/2000/svg">
<path d="M10.6785 4.66667H17.8333C18.2936 4.66667 18.6667 5.03977 18.6667 5.5V17.1667C18.6667 17.6269 18.2936 18 17.8333 18H2.83333C2.3731 18 2 17.6269 2 17.1667V3.83333C2 3.3731 2.3731 3 2.83333 3H9.01183L10.6785 4.66667ZM3.66667 4.66667V16.3333H17V6.33333H9.98817L8.32149 4.66667H3.66667ZM9.5 8H11.1667V14.6667H9.5V8ZM12.8333 10.5H14.5V14.6667H12.8333V10.5ZM6.16667 12.1667H7.83333V14.6667H6.16667V12.1667Z" fill="white"/>
</svg>
