<svg width="20" height="20" viewBox="0 0 20 20" fill="none" xmlns="http://www.w3.org/2000/svg">
<path d="M9.99996 18.3334C5.39758 18.3334 1.66663 14.6024 1.66663 10C1.66663 5.39765 5.39758 1.66669 9.99996 1.66669C14.6023 1.66669 18.3333 5.39765 18.3333 10C18.3333 14.6024 14.6023 18.3334 9.99996 18.3334ZM9.99996 16.6667C13.6819 16.6667 16.6666 13.6819 16.6666 10C16.6666 6.31812 13.6819 3.33335 9.99996 3.33335C6.31806 3.33335 3.33329 6.31812 3.33329 10C3.33329 13.6819 6.31806 16.6667 9.99996 16.6667ZM9.16663 5.83335H10.8333V7.50002H9.16663V5.83335ZM9.16663 9.16669H10.8333V14.1667H9.16663V9.16669Z" fill="white"/>
</svg>
