<svg width="20" height="20" viewBox="0 0 20 20" fill="none" xmlns="http://www.w3.org/2000/svg">
<path d="M4.16667 8.33331C3.25 8.33331 2.5 9.08331 2.5 9.99998C2.5 10.9166 3.25 11.6666 4.16667 11.6666C5.08333 11.6666 5.83333 10.9166 5.83333 9.99998C5.83333 9.08331 5.08333 8.33331 4.16667 8.33331ZM15.8333 8.33331C14.9167 8.33331 14.1667 9.08331 14.1667 9.99998C14.1667 10.9166 14.9167 11.6666 15.8333 11.6666C16.75 11.6666 17.5 10.9166 17.5 9.99998C17.5 9.08331 16.75 8.33331 15.8333 8.33331ZM10 8.33331C9.08333 8.33331 8.33333 9.08331 8.33333 9.99998C8.33333 10.9166 9.08333 11.6666 10 11.6666C10.9167 11.6666 11.6667 10.9166 11.6667 9.99998C11.6667 9.08331 10.9167 8.33331 10 8.33331Z" fill="#3E97FF"/>
</svg>
