<svg width="20" height="20" viewBox="0 0 20 20" fill="none" xmlns="http://www.w3.org/2000/svg">
<path d="M18.5945 17.4162L17.4161 18.5946L15.0594 16.2379L16.2378 15.0594L18.5945 17.4162ZM9.16663 1.66669C13.3066 1.66669 16.6666 5.02669 16.6666 9.16669C16.6666 13.3067 13.3066 16.6667 9.16663 16.6667C5.02663 16.6667 1.66663 13.3067 1.66663 9.16669C1.66663 5.02669 5.02663 1.66669 9.16663 1.66669ZM9.55888 6.09865C9.41188 5.74378 8.92154 5.74379 8.77438 6.09865L8.56363 6.6081C8.20371 7.4771 7.53202 8.17102 6.68778 8.5466L6.08964 8.81269C5.7478 8.96502 5.74783 9.46269 6.08964 9.6151L6.72278 9.89669C7.54594 10.2628 8.2063 10.9319 8.57254 11.7725L8.77763 12.2437C8.92804 12.5888 9.40529 12.5888 9.55563 12.2437L9.76154 11.7725C10.1278 10.9321 10.7874 10.2628 11.6105 9.89669L12.2436 9.6151C12.5855 9.46269 12.5855 8.96502 12.2436 8.81269L11.6455 8.5466C10.8012 8.17102 10.1296 7.4771 9.76963 6.6081L9.55888 6.09865Z" fill="#3E97FF"/>
</svg>
