<svg width="20" height="20" viewBox="0 0 20 20" fill="none" xmlns="http://www.w3.org/2000/svg">
<path d="M18.5945 17.416L17.4161 18.5943L15.0594 16.2376L16.2378 15.0591L18.5945 17.416ZM9.16663 1.66644C13.3065 1.66644 16.6665 5.02651 16.6666 9.16648C16.6666 13.3065 13.3066 16.6665 9.16663 16.6665C5.02663 16.6665 1.66663 13.3065 1.66663 9.16648C1.66672 5.02652 5.02668 1.66644 9.16663 1.66644ZM9.16663 3.33311C5.94376 3.33311 3.33338 5.9436 3.33329 9.16648C3.33329 12.3894 5.94371 14.9998 9.16663 14.9998C12.3895 14.9998 15 12.3894 15 9.16648C14.9999 5.9436 12.3895 3.33311 9.16663 3.33311ZM8.77438 6.09922C8.92146 5.74418 9.41188 5.74418 9.55888 6.09922L9.76963 6.60866C10.1296 7.47763 10.8012 8.17163 11.6455 8.54714L12.2436 8.81248C12.5857 8.96473 12.5856 9.46331 12.2436 9.61564L11.6105 9.89723C10.7873 10.2633 10.1278 10.9325 9.76154 11.7731L9.55563 12.2442C9.40529 12.5893 8.92804 12.5893 8.77763 12.2442L8.57254 11.7731C8.2063 10.9325 7.54594 10.2633 6.72278 9.89723L6.08964 9.61564C5.74762 9.46331 5.7476 8.96473 6.08964 8.81248L6.68778 8.54714C7.53204 8.17163 8.20368 7.47765 8.56363 6.60866L8.77438 6.09922Z" fill="white"/>
</svg>
