<svg width="20" height="20" viewBox="0 0 20 20" fill="none" xmlns="http://www.w3.org/2000/svg">
<path d="M1.66663 9.99983C1.66663 9.27942 1.75804 8.58033 1.92992 7.91359C2.83848 7.96069 3.74036 7.50846 4.22646 6.66652C4.71218 5.82521 4.65334 4.81892 4.1593 4.05584C5.15291 3.07941 6.39023 2.35018 7.77165 1.96777C8.18513 2.77821 9.02771 3.33318 9.99996 3.33318C10.9722 3.33318 11.8148 2.77821 12.2283 1.96777C13.6097 2.35018 14.847 3.07941 15.8406 4.05584C15.3465 4.81892 15.2877 5.82521 15.7735 6.66652C16.2595 7.50846 17.1615 7.96069 18.07 7.91359C18.2419 8.58033 18.3333 9.27942 18.3333 9.99983C18.3333 10.7202 18.2419 11.4193 18.07 12.0861C17.1615 12.039 16.2595 12.4912 15.7735 13.3332C15.2877 14.1745 15.3465 15.1807 15.8406 15.9438C14.847 16.9202 13.6097 17.6495 12.2283 18.0319C11.8148 17.2215 10.9722 16.6665 9.99996 16.6665C9.02771 16.6665 8.18513 17.2215 7.77165 18.0319C6.39023 17.6495 5.15291 16.9202 4.1593 15.9438C4.65334 15.1807 4.71218 14.1745 4.22646 13.3332C3.74036 12.4912 2.83848 12.039 1.92992 12.0861C1.75804 11.4193 1.66663 10.7202 1.66663 9.99983ZM5.66983 12.4998C6.19492 13.4093 6.34544 14.4549 6.14011 15.4363C6.47993 15.6782 6.84167 15.8877 7.2207 16.0617C7.96809 15.3927 8.94929 14.9998 9.99996 14.9998C11.0506 14.9998 12.0318 15.3927 12.7792 16.0617C13.1582 15.8877 13.52 15.6782 13.8598 15.4363C13.6545 14.4549 13.805 13.4093 14.3301 12.4998C14.8551 11.5904 15.6854 10.9373 16.6379 10.6244C16.657 10.4179 16.6666 10.2097 16.6666 9.99983C16.6666 9.79008 16.657 9.58175 16.6379 9.37533C15.6854 9.06242 14.8551 8.40933 14.3301 7.49985C13.805 6.59037 13.6545 5.54482 13.8598 4.56337C13.52 4.32157 13.1582 4.11206 12.7792 3.93793C12.0318 4.60703 11.0506 4.99985 9.99996 4.99985C8.94929 4.99985 7.96809 4.60703 7.2207 3.93793C6.84167 4.11206 6.47993 4.32157 6.14011 4.56337C6.34544 5.54482 6.19492 6.59037 5.66983 7.49985C5.14476 8.40933 4.31458 9.06242 3.36205 9.37533C3.34293 9.58175 3.33329 9.79008 3.33329 9.99983C3.33329 10.2097 3.34293 10.4179 3.36205 10.6244C4.31458 10.9373 5.14476 11.5904 5.66983 12.4998ZM9.99996 12.4998C8.61921 12.4998 7.49996 11.3806 7.49996 9.99983C7.49996 8.61917 8.61921 7.49985 9.99996 7.49985C11.3807 7.49985 12.5 8.61917 12.5 9.99983C12.5 11.3806 11.3807 12.4998 9.99996 12.4998ZM9.99996 10.8332C10.4602 10.8332 10.8333 10.4601 10.8333 9.99983C10.8333 9.53958 10.4602 9.1665 9.99996 9.1665C9.53971 9.1665 9.16663 9.53958 9.16663 9.99983C9.16663 10.4601 9.53971 10.8332 9.99996 10.8332Z" fill="white"/>
</svg>
