<svg width="20" height="20" viewBox="0 0 20 20" fill="none" xmlns="http://www.w3.org/2000/svg">
<path d="M4.44503 3.7874C5.29113 3.03029 6.29283 2.44348 7.39625 2.08087C8.00709 2.84398 8.94646 3.33271 9.99996 3.33271C11.0535 3.33271 11.9928 2.84398 12.6037 2.08087C13.7071 2.44348 14.7088 3.03029 15.5549 3.7874C15.2004 4.69748 15.2471 5.7544 15.7735 6.66605C16.3001 7.57821 17.1928 8.1473 18.1588 8.29491C18.2732 8.84515 18.3333 9.41523 18.3333 9.9994C18.3333 10.5835 18.2732 11.1536 18.1588 11.7038C17.1928 11.8515 16.3001 12.4206 15.7735 13.3327C15.2471 14.2443 15.2004 15.3013 15.5549 16.2113C14.7088 16.9685 13.7071 17.5553 12.6037 17.9179C11.9928 17.1548 11.0535 16.6661 9.99996 16.6661C8.94646 16.6661 8.00709 17.1548 7.39625 17.9179C6.29283 17.5553 5.29113 16.9685 4.44503 16.2113C4.79956 15.3013 4.75279 14.2443 4.22646 13.3327C3.69982 12.4206 2.80714 11.8515 1.84108 11.7038C1.72673 11.1536 1.66663 10.5835 1.66663 9.9994C1.66663 9.41523 1.72673 8.84515 1.84108 8.29491C2.80714 8.1473 3.69982 7.57821 4.22646 6.66605C4.75279 5.7544 4.79956 4.69748 4.44503 3.7874ZM11.25 12.1645C12.4457 11.4741 12.8554 9.94515 12.165 8.7494C11.4746 7.55365 9.94571 7.14395 8.74996 7.83431C7.55423 8.52465 7.14454 10.0536 7.83489 11.2494C8.52529 12.4451 10.0542 12.8548 11.25 12.1645Z" fill="#3E97FF"/>
</svg>
